<svg xmlns="http://www.w3.org/2000/svg" version="1.1">
<rect x="0" y="0" width="100" height="20" style="fill:white;stroke:black;stroke-width:2"/>
<text x="50" y="15" text-anchor="middle" style="font-family: Arial, Helvetica, sans-serif">
(x602,1)</text>
<line x1="50" y1="20" x2="50" y2="450" style="stroke:black;stroke-width:2" />
<rect x="25" y="450" width="50" height="10" style="fill:black;stroke:black;stroke-width:2"/>
<rect x="252" y="0" width="100" height="20" style="fill:white;stroke:black;stroke-width:2"/>
<text x="302" y="15" text-anchor="middle" style="font-family: Arial, Helvetica, sans-serif">
i</text>
<line x1="302" y1="20" x2="302" y2="450" style="stroke:black;stroke-width:2" />
<rect x="277" y="450" width="50" height="10" style="fill:black;stroke:black;stroke-width:2"/>
<rect x="504" y="0" width="100" height="20" style="fill:white;stroke:black;stroke-width:2"/>
<text x="554" y="15" text-anchor="middle" style="font-family: Arial, Helvetica, sans-serif">
(e,1)</text>
<line x1="554" y1="20" x2="554" y2="450" style="stroke:black;stroke-width:2" />
<rect x="529" y="450" width="50" height="10" style="fill:black;stroke:black;stroke-width:2"/>
<line x1="50.0" y1="50" x2="302.0" y2="50" style="stroke:black;stroke-width:2" />
<line x1="292.0" y1="40" x2="302.0" y2="50" style="stroke:black;stroke-width:2" />
<line x1="292.0" y1="60" x2="302.0" y2="50" style="stroke:black;stroke-width:2" />
<text x="176.0" y="45" text-anchor="middle" style="font-family: Arial, Helvetica, sans-serif"> {x602,e,exp(g,X(1))}_inv(pk(x602))</text>
<line x1="302.0" y1="100" x2="554.0" y2="100" style="stroke:black;stroke-width:2" />
<line x1="544.0" y1="90" x2="554.0" y2="100" style="stroke:black;stroke-width:2" />
<line x1="544.0" y1="110" x2="554.0" y2="100" style="stroke:black;stroke-width:2" />
<text x="428.0" y="95" text-anchor="middle" style="font-family: Arial, Helvetica, sans-serif"> {x602,e,exp(g,X(1))}_inv(pk(x602))</text>
<line x1="302.0" y1="150" x2="554.0" y2="150" style="stroke:black;stroke-width:2" />
<line x1="312.0" y1="140" x2="302.0" y2="150" style="stroke:black;stroke-width:2" />
<line x1="312.0" y1="160" x2="302.0" y2="150" style="stroke:black;stroke-width:2" />
<text x="428.0" y="145" text-anchor="middle" style="font-family: Arial, Helvetica, sans-serif"> {x602,e,exp(g,Z(2))}_inv(pk(e))</text>
<line x1="50.0" y1="200" x2="302.0" y2="200" style="stroke:black;stroke-width:2" />
<line x1="60.0" y1="190" x2="50.0" y2="200" style="stroke:black;stroke-width:2" />
<line x1="60.0" y1="210" x2="50.0" y2="200" style="stroke:black;stroke-width:2" />
<text x="176.0" y="195" text-anchor="middle" style="font-family: Arial, Helvetica, sans-serif"> {x602,e,exp(g,Z(2))}_inv(pk(e))</text>
<line x1="50.0" y1="250" x2="302.0" y2="250" style="stroke:black;stroke-width:2" />
<line x1="292.0" y1="240" x2="302.0" y2="250" style="stroke:black;stroke-width:2" />
<line x1="292.0" y1="260" x2="302.0" y2="250" style="stroke:black;stroke-width:2" />
<text x="176.0" y="245" text-anchor="middle" style="font-family: Arial, Helvetica, sans-serif"> {|CPR(3),PWD(3)|}_(exp(exp(g,Z(2)),X(1)))</text>
<line x1="302.0" y1="300" x2="554.0" y2="300" style="stroke:black;stroke-width:2" />
<line x1="544.0" y1="290" x2="554.0" y2="300" style="stroke:black;stroke-width:2" />
<line x1="544.0" y1="310" x2="554.0" y2="300" style="stroke:black;stroke-width:2" />
<text x="428.0" y="295" text-anchor="middle" style="font-family: Arial, Helvetica, sans-serif"> {|CPR(3),PWD(3)|}_(exp(exp(g,X(1)),Z(2)))</text>
<line x1="302.0" y1="350" x2="554.0" y2="350" style="stroke:black;stroke-width:2" />
<line x1="312.0" y1="340" x2="302.0" y2="350" style="stroke:black;stroke-width:2" />
<line x1="312.0" y1="360" x2="302.0" y2="350" style="stroke:black;stroke-width:2" />
<text x="428.0" y="345" text-anchor="middle" style="font-family: Arial, Helvetica, sans-serif"> {|CODE(4)|}_(exp(exp(g,X(1)),Z(2)))</text>
</svg>